%TF.GenerationSoftware,KiCad,Pcbnew,8.0.5*%
%TF.CreationDate,2025-06-15T17:11:27+02:00*%
%TF.ProjectId,leds,6c656473-2e6b-4696-9361-645f70636258,rev?*%
%TF.SameCoordinates,Original*%
%TF.FileFunction,Legend,Top*%
%TF.FilePolarity,Positive*%
%FSLAX46Y46*%
G04 Gerber Fmt 4.6, Leading zero omitted, Abs format (unit mm)*
G04 Created by KiCad (PCBNEW 8.0.5) date 2025-06-15 17:11:27*
%MOMM*%
%LPD*%
G01*
G04 APERTURE LIST*
G04 Aperture macros list*
%AMRoundRect*
0 Rectangle with rounded corners*
0 $1 Rounding radius*
0 $2 $3 $4 $5 $6 $7 $8 $9 X,Y pos of 4 corners*
0 Add a 4 corners polygon primitive as box body*
4,1,4,$2,$3,$4,$5,$6,$7,$8,$9,$2,$3,0*
0 Add four circle primitives for the rounded corners*
1,1,$1+$1,$2,$3*
1,1,$1+$1,$4,$5*
1,1,$1+$1,$6,$7*
1,1,$1+$1,$8,$9*
0 Add four rect primitives between the rounded corners*
20,1,$1+$1,$2,$3,$4,$5,0*
20,1,$1+$1,$4,$5,$6,$7,0*
20,1,$1+$1,$6,$7,$8,$9,0*
20,1,$1+$1,$8,$9,$2,$3,0*%
G04 Aperture macros list end*
%ADD10C,0.150000*%
%ADD11C,0.000000*%
%ADD12C,0.200000*%
%ADD13C,0.120000*%
%ADD14C,0.250000*%
%ADD15C,0.500000*%
%ADD16R,4.000000X1.020000*%
%ADD17R,8.400000X10.000000*%
%ADD18RoundRect,0.150000X-0.150000X0.725000X-0.150000X-0.725000X0.150000X-0.725000X0.150000X0.725000X0*%
%ADD19RoundRect,0.200000X0.200000X0.275000X-0.200000X0.275000X-0.200000X-0.275000X0.200000X-0.275000X0*%
%ADD20R,1.000000X1.500000*%
%ADD21R,1.500000X1.000000*%
%ADD22R,3.500000X4.000000*%
%ADD23R,1.600000X1.600000*%
%ADD24C,1.600000*%
%ADD25RoundRect,0.250000X-0.250000X1.250000X-0.250000X-1.250000X0.250000X-1.250000X0.250000X1.250000X0*%
%ADD26C,2.000000*%
G04 APERTURE END LIST*
D10*
X22604819Y-36181904D02*
X23414342Y-36181904D01*
X23414342Y-36181904D02*
X23509580Y-36134285D01*
X23509580Y-36134285D02*
X23557200Y-36086666D01*
X23557200Y-36086666D02*
X23604819Y-35991428D01*
X23604819Y-35991428D02*
X23604819Y-35800952D01*
X23604819Y-35800952D02*
X23557200Y-35705714D01*
X23557200Y-35705714D02*
X23509580Y-35658095D01*
X23509580Y-35658095D02*
X23414342Y-35610476D01*
X23414342Y-35610476D02*
X22604819Y-35610476D01*
X23604819Y-34610476D02*
X23604819Y-35181904D01*
X23604819Y-34896190D02*
X22604819Y-34896190D01*
X22604819Y-34896190D02*
X22747676Y-34991428D01*
X22747676Y-34991428D02*
X22842914Y-35086666D01*
X22842914Y-35086666D02*
X22890533Y-35181904D01*
D11*
%TO.C,G\u002A\u002A\u002A*%
G36*
X59425291Y-17632438D02*
G01*
X59444926Y-17718736D01*
X59421793Y-17824309D01*
X59348050Y-17970037D01*
X59241888Y-18131351D01*
X59121498Y-18283683D01*
X59005071Y-18402463D01*
X58910799Y-18463125D01*
X58891364Y-18466352D01*
X58823477Y-18448438D01*
X58812756Y-18376083D01*
X58820676Y-18328580D01*
X58814996Y-18177624D01*
X58776840Y-18093561D01*
X58714211Y-17960186D01*
X58720567Y-17845293D01*
X58787121Y-17780628D01*
X58882483Y-17794056D01*
X58953168Y-17861339D01*
X59037656Y-17973348D01*
X59175047Y-17765736D01*
X59284531Y-17629307D01*
X59369298Y-17584639D01*
X59425291Y-17632438D01*
G37*
G36*
X58623168Y-17571610D02*
G01*
X58680980Y-17589061D01*
X58704072Y-17612264D01*
X58729811Y-17716987D01*
X58667520Y-17788118D01*
X58526694Y-17815054D01*
X58522478Y-17815069D01*
X58350114Y-17815069D01*
X58365018Y-18176600D01*
X58369665Y-18367151D01*
X58361303Y-18479565D01*
X58335767Y-18535514D01*
X58292097Y-18556043D01*
X58206201Y-18540016D01*
X58179851Y-18507628D01*
X58159528Y-18423165D01*
X58133530Y-18277382D01*
X58116638Y-18165760D01*
X58077849Y-17890217D01*
X57772448Y-17906950D01*
X57591681Y-17910775D01*
X57488438Y-17894898D01*
X57441321Y-17855548D01*
X57438000Y-17847989D01*
X57430742Y-17781702D01*
X57474157Y-17729519D01*
X57579955Y-17687152D01*
X57759848Y-17650313D01*
X58025545Y-17614715D01*
X58097408Y-17606543D01*
X58348727Y-17580515D01*
X58518199Y-17568816D01*
X58623168Y-17571610D01*
G37*
G36*
X63000708Y-17337080D02*
G01*
X63185520Y-17439817D01*
X63192317Y-17444959D01*
X63332141Y-17596966D01*
X63415439Y-17780919D01*
X63440207Y-17971813D01*
X63404441Y-18144642D01*
X63306139Y-18274399D01*
X63261044Y-18302792D01*
X63067854Y-18360974D01*
X62892359Y-18323109D01*
X62779704Y-18245964D01*
X62700025Y-18165626D01*
X62657952Y-18077402D01*
X62641916Y-17946392D01*
X62640223Y-17840119D01*
X62913847Y-17840119D01*
X62919038Y-17979235D01*
X62944554Y-18045148D01*
X63005311Y-18064702D01*
X63039093Y-18065563D01*
X63132318Y-18046613D01*
X63163089Y-17969762D01*
X63164340Y-17931736D01*
X63136235Y-17807603D01*
X63068520Y-17691510D01*
X62986094Y-17621383D01*
X62956181Y-17614675D01*
X62930930Y-17659467D01*
X62915786Y-17772792D01*
X62913847Y-17840119D01*
X62640223Y-17840119D01*
X62639974Y-17824462D01*
X62664692Y-17573836D01*
X62735950Y-17407074D01*
X62849403Y-17327160D01*
X63000708Y-17337080D01*
G37*
G36*
X62145384Y-17443568D02*
G01*
X62255915Y-17578673D01*
X62350893Y-17787127D01*
X62410346Y-18003614D01*
X62450313Y-18237176D01*
X62451072Y-18388914D01*
X62410998Y-18469888D01*
X62338631Y-18491401D01*
X62253900Y-18452378D01*
X62192343Y-18327046D01*
X62189022Y-18316056D01*
X62143541Y-18199244D01*
X62082243Y-18155734D01*
X61999547Y-18156563D01*
X61895492Y-18189424D01*
X61862294Y-18271117D01*
X61861776Y-18290237D01*
X61848998Y-18419383D01*
X61831366Y-18487303D01*
X61765457Y-18550910D01*
X61669176Y-18562594D01*
X61592690Y-18519468D01*
X61583208Y-18501583D01*
X61579153Y-18410045D01*
X61600026Y-18252695D01*
X61639115Y-18058792D01*
X61689705Y-17857593D01*
X61719881Y-17759927D01*
X61964019Y-17759927D01*
X61978033Y-17834442D01*
X62032431Y-17865168D01*
X62081685Y-17828328D01*
X62076833Y-17765534D01*
X62038466Y-17697089D01*
X62006376Y-17693343D01*
X61964019Y-17759927D01*
X61719881Y-17759927D01*
X61745084Y-17678357D01*
X61798539Y-17550343D01*
X61803480Y-17541554D01*
X61910865Y-17418689D01*
X62027600Y-17388134D01*
X62145384Y-17443568D01*
G37*
G36*
X61612963Y-17498738D02*
G01*
X61640080Y-17521804D01*
X61671900Y-17572358D01*
X61671534Y-17646672D01*
X61635232Y-17768712D01*
X61578528Y-17914995D01*
X61446800Y-18211221D01*
X61323320Y-18430677D01*
X61212174Y-18568418D01*
X61117448Y-18619500D01*
X61043230Y-18578976D01*
X61037257Y-18569960D01*
X60976492Y-18556828D01*
X60871479Y-18594701D01*
X60704355Y-18657511D01*
X60565407Y-18645399D01*
X60496587Y-18612634D01*
X60381470Y-18497692D01*
X60300144Y-18329686D01*
X60272541Y-18154786D01*
X60278015Y-18106357D01*
X60323494Y-17980621D01*
X60407122Y-17821727D01*
X60462546Y-17734789D01*
X60559522Y-17603714D01*
X60636586Y-17538891D01*
X60725388Y-17520659D01*
X60801491Y-17524235D01*
X60927616Y-17546841D01*
X60979279Y-17596570D01*
X60985050Y-17639724D01*
X60944062Y-17729427D01*
X60873354Y-17755796D01*
X60751089Y-17816978D01*
X60644288Y-17941837D01*
X60577556Y-18094269D01*
X60568398Y-18203230D01*
X60592265Y-18296830D01*
X60656017Y-18334824D01*
X60759606Y-18341105D01*
X60893159Y-18350456D01*
X60983692Y-18373241D01*
X60988382Y-18375954D01*
X61047059Y-18361998D01*
X61118813Y-18280047D01*
X61125881Y-18268488D01*
X61177739Y-18168433D01*
X61173735Y-18119405D01*
X61134322Y-18097151D01*
X61051479Y-18023745D01*
X60998494Y-17905059D01*
X60990777Y-17786748D01*
X61012685Y-17736806D01*
X61097725Y-17693026D01*
X61184743Y-17732692D01*
X61238942Y-17825779D01*
X61264093Y-17876437D01*
X61296041Y-17856652D01*
X61347926Y-17755795D01*
X61360879Y-17727134D01*
X61451231Y-17558980D01*
X61532903Y-17484580D01*
X61612963Y-17498738D01*
G37*
G36*
X29988430Y-57797698D02*
G01*
X30043098Y-57840159D01*
X30082800Y-57945615D01*
X30116788Y-58135137D01*
X30141760Y-58326075D01*
X30215351Y-58791486D01*
X30322557Y-59289339D01*
X30455533Y-59794330D01*
X30606439Y-60281157D01*
X30767431Y-60724516D01*
X30930666Y-61099102D01*
X31088078Y-61379280D01*
X31199201Y-61531863D01*
X31285083Y-61602848D01*
X31381448Y-61614106D01*
X31452789Y-61602578D01*
X31675985Y-61563002D01*
X31808242Y-61556607D01*
X31874610Y-61585447D01*
X31897903Y-61639065D01*
X31857464Y-61737808D01*
X31704651Y-61878721D01*
X31562567Y-61981099D01*
X31209580Y-62254821D01*
X30954023Y-62536679D01*
X30774295Y-62850752D01*
X30766652Y-62868338D01*
X30722295Y-63008729D01*
X30665841Y-63240902D01*
X30602298Y-63537768D01*
X30536676Y-63872237D01*
X30473985Y-64217222D01*
X30419235Y-64545633D01*
X30377435Y-64830383D01*
X30353595Y-65044382D01*
X30349953Y-65121519D01*
X30336621Y-65280353D01*
X30313599Y-65376720D01*
X30235633Y-65453556D01*
X30124032Y-65466576D01*
X30038672Y-65411550D01*
X30031635Y-65396643D01*
X30021921Y-65304229D01*
X30021464Y-65126581D01*
X30030149Y-64898194D01*
X30033484Y-64841205D01*
X30021271Y-64235261D01*
X29908094Y-63678332D01*
X29696826Y-63179546D01*
X29390339Y-62748032D01*
X29366715Y-62722014D01*
X29062563Y-62445704D01*
X28756355Y-62280914D01*
X28432037Y-62219888D01*
X28328938Y-62220649D01*
X28139043Y-62217336D01*
X28009766Y-62191278D01*
X27978496Y-62169614D01*
X27975608Y-62071730D01*
X27992667Y-62052601D01*
X29072134Y-62052601D01*
X29147040Y-62121719D01*
X29286068Y-62220100D01*
X29463788Y-62374717D01*
X29661144Y-62596319D01*
X29853220Y-62850956D01*
X30015102Y-63104675D01*
X30121875Y-63323524D01*
X30141756Y-63386162D01*
X30191477Y-63519300D01*
X30240516Y-63534752D01*
X30283827Y-63434850D01*
X30306381Y-63310162D01*
X30375884Y-63035819D01*
X30504787Y-62721602D01*
X30669727Y-62414661D01*
X30847344Y-62162146D01*
X30908441Y-62095089D01*
X31121932Y-61881598D01*
X30971261Y-61740125D01*
X30855915Y-61594089D01*
X30719250Y-61363108D01*
X30575980Y-61076796D01*
X30440819Y-60764769D01*
X30328479Y-60456643D01*
X30319239Y-60427730D01*
X30240844Y-60196514D01*
X30184087Y-60080216D01*
X30143137Y-60076842D01*
X30112166Y-60184399D01*
X30090594Y-60349543D01*
X30028489Y-60760900D01*
X29932842Y-61083792D01*
X29791246Y-61347974D01*
X29591292Y-61583201D01*
X29565767Y-61608045D01*
X29393768Y-61765392D01*
X29238565Y-61894545D01*
X29138084Y-61964832D01*
X29073437Y-62007703D01*
X29072134Y-62052601D01*
X27992667Y-62052601D01*
X28056361Y-61981180D01*
X28187123Y-61931186D01*
X28222177Y-61928912D01*
X28347560Y-61903986D01*
X28401040Y-61864771D01*
X28483444Y-61823627D01*
X28517159Y-61829977D01*
X28633963Y-61823227D01*
X28810951Y-61755830D01*
X29016744Y-61644852D01*
X29219963Y-61507357D01*
X29389230Y-61360410D01*
X29398601Y-61350629D01*
X29558656Y-61130046D01*
X29678906Y-60843189D01*
X29761832Y-60478219D01*
X29809916Y-60023295D01*
X29825640Y-59466576D01*
X29824878Y-59316855D01*
X29820230Y-58977380D01*
X29813829Y-58649773D01*
X29806469Y-58368355D01*
X29798942Y-58167445D01*
X29797824Y-58145933D01*
X29791939Y-57955190D01*
X29807926Y-57853220D01*
X29855625Y-57809304D01*
X29909547Y-57797161D01*
X29988430Y-57797698D01*
G37*
G36*
X64372861Y-54013820D02*
G01*
X64449943Y-54073690D01*
X64505923Y-54222384D01*
X64553845Y-54489609D01*
X64589057Y-54758832D01*
X64692820Y-55415061D01*
X64843979Y-56117033D01*
X65031477Y-56829071D01*
X65244254Y-57515497D01*
X65471252Y-58140633D01*
X65701414Y-58668800D01*
X65923364Y-59063851D01*
X66080048Y-59278993D01*
X66201142Y-59379081D01*
X66337016Y-59394956D01*
X66437607Y-59378701D01*
X66752314Y-59322898D01*
X66938796Y-59313882D01*
X67032375Y-59354547D01*
X67065218Y-59430147D01*
X67008198Y-59569375D01*
X66792733Y-59768062D01*
X66592394Y-59912416D01*
X66094682Y-60298363D01*
X65734347Y-60695782D01*
X65480930Y-61138626D01*
X65470154Y-61163422D01*
X65407611Y-61361374D01*
X65328010Y-61688738D01*
X65238414Y-62107319D01*
X65145887Y-62578920D01*
X65057493Y-63065349D01*
X64980295Y-63528409D01*
X64921358Y-63929905D01*
X64887744Y-64231644D01*
X64882608Y-64340407D01*
X64863810Y-64564363D01*
X64831349Y-64700240D01*
X64721418Y-64808579D01*
X64564059Y-64826938D01*
X64443702Y-64749352D01*
X64433780Y-64728332D01*
X64420083Y-64598028D01*
X64419439Y-64347545D01*
X64431685Y-64025519D01*
X64436388Y-63945165D01*
X64419167Y-63090784D01*
X64259587Y-62305514D01*
X63961699Y-61602225D01*
X63529552Y-60993791D01*
X63496243Y-60957106D01*
X63067389Y-60567508D01*
X62635636Y-60335154D01*
X62178347Y-60249108D01*
X62032977Y-60250181D01*
X61765225Y-60245510D01*
X61582944Y-60208767D01*
X61538854Y-60178222D01*
X61534783Y-60040205D01*
X61558836Y-60013234D01*
X63080884Y-60013234D01*
X63186501Y-60110690D01*
X63382531Y-60249407D01*
X63633116Y-60467416D01*
X63911387Y-60779875D01*
X64182215Y-61138913D01*
X64410468Y-61496657D01*
X64561018Y-61805235D01*
X64589051Y-61893555D01*
X64659157Y-62081278D01*
X64728303Y-62103066D01*
X64789370Y-61962204D01*
X64821172Y-61786393D01*
X64919171Y-61399570D01*
X65100924Y-60956524D01*
X65333490Y-60523738D01*
X65583929Y-60167692D01*
X65670077Y-60073141D01*
X65971098Y-59772119D01*
X65758652Y-59572642D01*
X65596015Y-59366732D01*
X65403317Y-59041048D01*
X65201307Y-58637348D01*
X65010729Y-58197390D01*
X64852330Y-57762932D01*
X64839301Y-57722165D01*
X64728765Y-57396151D01*
X64648737Y-57232170D01*
X64590998Y-57227413D01*
X64547328Y-57379068D01*
X64516912Y-57611921D01*
X64429344Y-58191934D01*
X64294482Y-58647212D01*
X64094832Y-59019708D01*
X63812897Y-59351379D01*
X63776906Y-59386409D01*
X63534387Y-59608269D01*
X63315551Y-59790374D01*
X63173873Y-59889479D01*
X63082721Y-59949926D01*
X63080884Y-60013234D01*
X61558836Y-60013234D01*
X61648644Y-59912530D01*
X61833018Y-59842037D01*
X61882444Y-59838832D01*
X62059235Y-59803686D01*
X62134641Y-59748393D01*
X62250831Y-59690380D01*
X62298369Y-59699334D01*
X62463062Y-59689816D01*
X62712615Y-59594786D01*
X63002783Y-59438307D01*
X63289323Y-59244439D01*
X63527989Y-59037243D01*
X63541202Y-59023452D01*
X63766880Y-58712430D01*
X63936431Y-58307963D01*
X64053357Y-57793354D01*
X64121156Y-57151911D01*
X64143327Y-56366938D01*
X64142253Y-56155832D01*
X64135699Y-55677172D01*
X64126674Y-55215246D01*
X64116296Y-54818446D01*
X64105683Y-54535163D01*
X64104106Y-54504832D01*
X64095808Y-54235884D01*
X64118350Y-54092105D01*
X64185606Y-54030184D01*
X64261635Y-54013063D01*
X64372861Y-54013820D01*
G37*
D12*
%TO.C,U3*%
X54650000Y-22260000D02*
X56600000Y-22260000D01*
X54650000Y-23060000D02*
X54650000Y-22260000D01*
X54650000Y-23960000D02*
X56600000Y-23960000D01*
X54650000Y-24760000D02*
X54650000Y-23960000D01*
X54650000Y-25660000D02*
X56600000Y-25660000D01*
X54650000Y-26460000D02*
X54650000Y-25660000D01*
X54650000Y-27360000D02*
X56600000Y-27360000D01*
X54650000Y-28160000D02*
X54650000Y-27360000D01*
X54650000Y-29060000D02*
X56600000Y-29060000D01*
X54650000Y-29860000D02*
X54650000Y-29060000D01*
X56600000Y-20720000D02*
X66760000Y-20720000D01*
X56600000Y-22260000D02*
X56600000Y-22230000D01*
X56600000Y-23060000D02*
X54650000Y-23060000D01*
X56600000Y-23960000D02*
X56600000Y-23930000D01*
X56600000Y-24760000D02*
X54650000Y-24760000D01*
X56600000Y-25660000D02*
X56600000Y-25630000D01*
X56600000Y-26460000D02*
X54650000Y-26460000D01*
X56600000Y-27360000D02*
X56600000Y-27330000D01*
X56600000Y-28160000D02*
X54650000Y-28160000D01*
X56600000Y-29060000D02*
X56600000Y-29030000D01*
X56600000Y-29860000D02*
X54650000Y-29860000D01*
X56600000Y-31380000D02*
X56600000Y-20720000D01*
X66760000Y-20720000D02*
X66760000Y-20850000D01*
X66760000Y-31250000D02*
X66760000Y-31380000D01*
X66760000Y-31380000D02*
X56600000Y-31380000D01*
D13*
%TO.C,Q3*%
X25920000Y-48290000D02*
X25920000Y-55890000D01*
X25920000Y-55890000D02*
X31520000Y-55890000D01*
X31020000Y-48290000D02*
X25920000Y-48290000D01*
X31520000Y-55890000D02*
X31520000Y-48790000D01*
D12*
X31383500Y-48490000D02*
G75*
G02*
X31256500Y-48490000I-63500J0D01*
G01*
X31256500Y-48490000D02*
G75*
G02*
X31383500Y-48490000I63500J0D01*
G01*
D13*
%TO.C,R1*%
X33532258Y-18847500D02*
X33057742Y-18847500D01*
X33532258Y-19892500D02*
X33057742Y-19892500D01*
D14*
%TO.C,U1*%
X18640000Y-27420000D02*
X26420000Y-27420000D01*
X18640000Y-43420000D02*
X18640000Y-27420000D01*
X18640000Y-43420000D02*
X26420000Y-43420000D01*
D15*
X20150000Y-37450000D02*
X21740000Y-37450000D01*
X20150000Y-39150000D02*
X20150000Y-37450000D01*
X20150000Y-39150000D02*
X24100000Y-39150000D01*
X20150000Y-41160000D02*
X20150000Y-39150000D01*
X20190000Y-29290000D02*
X21910000Y-29290000D01*
X20190000Y-32400000D02*
X20190000Y-29290000D01*
X20190000Y-34230000D02*
X21810000Y-34230000D01*
X20190000Y-36030000D02*
X20190000Y-34230000D01*
X21740000Y-36030000D02*
X20190000Y-36030000D01*
X21740000Y-37450000D02*
X21740000Y-36030000D01*
X21810000Y-32400000D02*
X20190000Y-32400000D01*
X21810000Y-34230000D02*
X21810000Y-32400000D01*
X24120000Y-41160000D02*
X20150000Y-41160000D01*
D14*
X27890000Y-27420000D02*
X28420000Y-27420000D01*
X27890000Y-43420000D02*
X28420000Y-43420000D01*
X29890000Y-27420000D02*
X30420000Y-27420000D01*
X29890000Y-43420000D02*
X30420000Y-43420000D01*
X31890000Y-27420000D02*
X32420000Y-27420000D01*
X31890000Y-43420000D02*
X32420000Y-43420000D01*
X33890000Y-27420000D02*
X34420000Y-27420000D01*
X33890000Y-43420000D02*
X34420000Y-43420000D01*
X35890000Y-27420000D02*
X36420000Y-27420000D01*
X35890000Y-43420000D02*
X36420000Y-43420000D01*
X37890000Y-27420000D02*
X38420000Y-27420000D01*
X37890000Y-43420000D02*
X38420000Y-43420000D01*
X39890000Y-27420000D02*
X40420000Y-27420000D01*
X39890000Y-43420000D02*
X40420000Y-43420000D01*
X41890000Y-27420000D02*
X42640000Y-27420000D01*
X41890000Y-43420000D02*
X42640000Y-43420000D01*
X42640000Y-29690000D02*
X42640000Y-27420000D01*
X42640000Y-31690000D02*
X42640000Y-31160000D01*
X42640000Y-33690000D02*
X42640000Y-33160000D01*
X42640000Y-35690000D02*
X42640000Y-35160000D01*
X42640000Y-37690000D02*
X42640000Y-37160000D01*
X42640000Y-39690000D02*
X42640000Y-39160000D01*
X42640000Y-43420000D02*
X42640000Y-41160000D01*
%TO.C,L1*%
X50170000Y-46340000D02*
X61770000Y-46340000D01*
X50170000Y-49160000D02*
X50170000Y-46340000D01*
X50170000Y-56440000D02*
X50170000Y-53620000D01*
X61770000Y-46340000D02*
X61770000Y-49160000D01*
X61770000Y-53620000D02*
X61770000Y-56440000D01*
X61770000Y-56440000D02*
X50170000Y-56440000D01*
D13*
%TO.C,C2*%
X59160302Y-36765000D02*
X59960302Y-36765000D01*
X59560302Y-36365000D02*
X59560302Y-37165000D01*
X63570000Y-35000000D02*
X63570000Y-43160000D01*
X63610000Y-35000000D02*
X63610000Y-43160000D01*
X63650000Y-35000000D02*
X63650000Y-43160000D01*
X63690000Y-35001000D02*
X63690000Y-43159000D01*
X63730000Y-35003000D02*
X63730000Y-43157000D01*
X63770000Y-35004000D02*
X63770000Y-43156000D01*
X63810000Y-35006000D02*
X63810000Y-43154000D01*
X63850000Y-35009000D02*
X63850000Y-43151000D01*
X63890000Y-35012000D02*
X63890000Y-43148000D01*
X63930000Y-35015000D02*
X63930000Y-43145000D01*
X63970000Y-35019000D02*
X63970000Y-43141000D01*
X64010000Y-35023000D02*
X64010000Y-43137000D01*
X64050000Y-35028000D02*
X64050000Y-43132000D01*
X64090000Y-35032000D02*
X64090000Y-43128000D01*
X64130000Y-35038000D02*
X64130000Y-43122000D01*
X64170000Y-35043000D02*
X64170000Y-43117000D01*
X64210000Y-35050000D02*
X64210000Y-43110000D01*
X64250000Y-35056000D02*
X64250000Y-43104000D01*
X64291000Y-35063000D02*
X64291000Y-38040000D01*
X64291000Y-40120000D02*
X64291000Y-43097000D01*
X64331000Y-35070000D02*
X64331000Y-38040000D01*
X64331000Y-40120000D02*
X64331000Y-43090000D01*
X64371000Y-35078000D02*
X64371000Y-38040000D01*
X64371000Y-40120000D02*
X64371000Y-43082000D01*
X64411000Y-35086000D02*
X64411000Y-38040000D01*
X64411000Y-40120000D02*
X64411000Y-43074000D01*
X64451000Y-35095000D02*
X64451000Y-38040000D01*
X64451000Y-40120000D02*
X64451000Y-43065000D01*
X64491000Y-35104000D02*
X64491000Y-38040000D01*
X64491000Y-40120000D02*
X64491000Y-43056000D01*
X64531000Y-35113000D02*
X64531000Y-38040000D01*
X64531000Y-40120000D02*
X64531000Y-43047000D01*
X64571000Y-35123000D02*
X64571000Y-38040000D01*
X64571000Y-40120000D02*
X64571000Y-43037000D01*
X64611000Y-35133000D02*
X64611000Y-38040000D01*
X64611000Y-40120000D02*
X64611000Y-43027000D01*
X64651000Y-35144000D02*
X64651000Y-38040000D01*
X64651000Y-40120000D02*
X64651000Y-43016000D01*
X64691000Y-35155000D02*
X64691000Y-38040000D01*
X64691000Y-40120000D02*
X64691000Y-43005000D01*
X64731000Y-35166000D02*
X64731000Y-38040000D01*
X64731000Y-40120000D02*
X64731000Y-42994000D01*
X64771000Y-35178000D02*
X64771000Y-38040000D01*
X64771000Y-40120000D02*
X64771000Y-42982000D01*
X64811000Y-35191000D02*
X64811000Y-38040000D01*
X64811000Y-40120000D02*
X64811000Y-42969000D01*
X64851000Y-35203000D02*
X64851000Y-38040000D01*
X64851000Y-40120000D02*
X64851000Y-42957000D01*
X64891000Y-35217000D02*
X64891000Y-38040000D01*
X64891000Y-40120000D02*
X64891000Y-42943000D01*
X64931000Y-35230000D02*
X64931000Y-38040000D01*
X64931000Y-40120000D02*
X64931000Y-42930000D01*
X64971000Y-35245000D02*
X64971000Y-38040000D01*
X64971000Y-40120000D02*
X64971000Y-42915000D01*
X65011000Y-35259000D02*
X65011000Y-38040000D01*
X65011000Y-40120000D02*
X65011000Y-42901000D01*
X65051000Y-35275000D02*
X65051000Y-38040000D01*
X65051000Y-40120000D02*
X65051000Y-42885000D01*
X65091000Y-35290000D02*
X65091000Y-38040000D01*
X65091000Y-40120000D02*
X65091000Y-42870000D01*
X65131000Y-35306000D02*
X65131000Y-38040000D01*
X65131000Y-40120000D02*
X65131000Y-42854000D01*
X65171000Y-35323000D02*
X65171000Y-38040000D01*
X65171000Y-40120000D02*
X65171000Y-42837000D01*
X65211000Y-35340000D02*
X65211000Y-38040000D01*
X65211000Y-40120000D02*
X65211000Y-42820000D01*
X65251000Y-35358000D02*
X65251000Y-38040000D01*
X65251000Y-40120000D02*
X65251000Y-42802000D01*
X65291000Y-35376000D02*
X65291000Y-38040000D01*
X65291000Y-40120000D02*
X65291000Y-42784000D01*
X65331000Y-35394000D02*
X65331000Y-38040000D01*
X65331000Y-40120000D02*
X65331000Y-42766000D01*
X65371000Y-35414000D02*
X65371000Y-38040000D01*
X65371000Y-40120000D02*
X65371000Y-42746000D01*
X65411000Y-35433000D02*
X65411000Y-38040000D01*
X65411000Y-40120000D02*
X65411000Y-42727000D01*
X65451000Y-35453000D02*
X65451000Y-38040000D01*
X65451000Y-40120000D02*
X65451000Y-42707000D01*
X65491000Y-35474000D02*
X65491000Y-38040000D01*
X65491000Y-40120000D02*
X65491000Y-42686000D01*
X65531000Y-35496000D02*
X65531000Y-38040000D01*
X65531000Y-40120000D02*
X65531000Y-42664000D01*
X65571000Y-35518000D02*
X65571000Y-38040000D01*
X65571000Y-40120000D02*
X65571000Y-42642000D01*
X65611000Y-35540000D02*
X65611000Y-38040000D01*
X65611000Y-40120000D02*
X65611000Y-42620000D01*
X65651000Y-35563000D02*
X65651000Y-38040000D01*
X65651000Y-40120000D02*
X65651000Y-42597000D01*
X65691000Y-35587000D02*
X65691000Y-38040000D01*
X65691000Y-40120000D02*
X65691000Y-42573000D01*
X65731000Y-35611000D02*
X65731000Y-38040000D01*
X65731000Y-40120000D02*
X65731000Y-42549000D01*
X65771000Y-35636000D02*
X65771000Y-38040000D01*
X65771000Y-40120000D02*
X65771000Y-42524000D01*
X65811000Y-35662000D02*
X65811000Y-38040000D01*
X65811000Y-40120000D02*
X65811000Y-42498000D01*
X65851000Y-35688000D02*
X65851000Y-38040000D01*
X65851000Y-40120000D02*
X65851000Y-42472000D01*
X65891000Y-35715000D02*
X65891000Y-38040000D01*
X65891000Y-40120000D02*
X65891000Y-42445000D01*
X65931000Y-35742000D02*
X65931000Y-38040000D01*
X65931000Y-40120000D02*
X65931000Y-42418000D01*
X65971000Y-35771000D02*
X65971000Y-38040000D01*
X65971000Y-40120000D02*
X65971000Y-42389000D01*
X66011000Y-35800000D02*
X66011000Y-38040000D01*
X66011000Y-40120000D02*
X66011000Y-42360000D01*
X66051000Y-35830000D02*
X66051000Y-38040000D01*
X66051000Y-40120000D02*
X66051000Y-42330000D01*
X66091000Y-35860000D02*
X66091000Y-38040000D01*
X66091000Y-40120000D02*
X66091000Y-42300000D01*
X66131000Y-35891000D02*
X66131000Y-38040000D01*
X66131000Y-40120000D02*
X66131000Y-42269000D01*
X66171000Y-35924000D02*
X66171000Y-38040000D01*
X66171000Y-40120000D02*
X66171000Y-42236000D01*
X66211000Y-35956000D02*
X66211000Y-38040000D01*
X66211000Y-40120000D02*
X66211000Y-42204000D01*
X66251000Y-35990000D02*
X66251000Y-38040000D01*
X66251000Y-40120000D02*
X66251000Y-42170000D01*
X66291000Y-36025000D02*
X66291000Y-38040000D01*
X66291000Y-40120000D02*
X66291000Y-42135000D01*
X66331000Y-36061000D02*
X66331000Y-38040000D01*
X66331000Y-40120000D02*
X66331000Y-42099000D01*
X66371000Y-36097000D02*
X66371000Y-42063000D01*
X66411000Y-36135000D02*
X66411000Y-42025000D01*
X66451000Y-36173000D02*
X66451000Y-41987000D01*
X66491000Y-36213000D02*
X66491000Y-41947000D01*
X66531000Y-36254000D02*
X66531000Y-41906000D01*
X66571000Y-36296000D02*
X66571000Y-41864000D01*
X66611000Y-36339000D02*
X66611000Y-41821000D01*
X66651000Y-36383000D02*
X66651000Y-41777000D01*
X66691000Y-36429000D02*
X66691000Y-41731000D01*
X66731000Y-36476000D02*
X66731000Y-41684000D01*
X66771000Y-36524000D02*
X66771000Y-41636000D01*
X66811000Y-36575000D02*
X66811000Y-41585000D01*
X66851000Y-36626000D02*
X66851000Y-41534000D01*
X66891000Y-36680000D02*
X66891000Y-41480000D01*
X66931000Y-36735000D02*
X66931000Y-41425000D01*
X66971000Y-36793000D02*
X66971000Y-41367000D01*
X67011000Y-36852000D02*
X67011000Y-41308000D01*
X67051000Y-36914000D02*
X67051000Y-41246000D01*
X67091000Y-36978000D02*
X67091000Y-41182000D01*
X67131000Y-37046000D02*
X67131000Y-41114000D01*
X67171000Y-37116000D02*
X67171000Y-41044000D01*
X67211000Y-37190000D02*
X67211000Y-40970000D01*
X67251000Y-37267000D02*
X67251000Y-40893000D01*
X67291000Y-37349000D02*
X67291000Y-40811000D01*
X67331000Y-37435000D02*
X67331000Y-40725000D01*
X67371000Y-37528000D02*
X67371000Y-40632000D01*
X67411000Y-37627000D02*
X67411000Y-40533000D01*
X67451000Y-37734000D02*
X67451000Y-40426000D01*
X67491000Y-37851000D02*
X67491000Y-40309000D01*
X67531000Y-37982000D02*
X67531000Y-40178000D01*
X67571000Y-38132000D02*
X67571000Y-40028000D01*
X67611000Y-38312000D02*
X67611000Y-39848000D01*
X67651000Y-38547000D02*
X67651000Y-39613000D01*
X67690000Y-39080000D02*
G75*
G02*
X59450000Y-39080000I-4120000J0D01*
G01*
X59450000Y-39080000D02*
G75*
G02*
X67690000Y-39080000I4120000J0D01*
G01*
%TO.C,Q1*%
X39820000Y-48550000D02*
X39820000Y-56150000D01*
X39820000Y-56150000D02*
X45420000Y-56150000D01*
X44920000Y-48550000D02*
X39820000Y-48550000D01*
X45420000Y-56150000D02*
X45420000Y-49050000D01*
D12*
X45283500Y-48750000D02*
G75*
G02*
X45156500Y-48750000I-63500J0D01*
G01*
X45156500Y-48750000D02*
G75*
G02*
X45283500Y-48750000I63500J0D01*
G01*
D13*
%TO.C,JP1*%
X32770000Y-21900000D02*
X34770000Y-21900000D01*
X32770000Y-24700000D02*
X32770000Y-21900000D01*
X34770000Y-21900000D02*
X34770000Y-24700000D01*
X34770000Y-24700000D02*
X32770000Y-24700000D01*
%TO.C,C1*%
X49037651Y-36575000D02*
X49837651Y-36575000D01*
X49437651Y-36175000D02*
X49437651Y-36975000D01*
X53447349Y-34810000D02*
X53447349Y-42970000D01*
X53487349Y-34810000D02*
X53487349Y-42970000D01*
X53527349Y-34810000D02*
X53527349Y-42970000D01*
X53567349Y-34811000D02*
X53567349Y-42969000D01*
X53607349Y-34813000D02*
X53607349Y-42967000D01*
X53647349Y-34814000D02*
X53647349Y-42966000D01*
X53687349Y-34816000D02*
X53687349Y-42964000D01*
X53727349Y-34819000D02*
X53727349Y-42961000D01*
X53767349Y-34822000D02*
X53767349Y-42958000D01*
X53807349Y-34825000D02*
X53807349Y-42955000D01*
X53847349Y-34829000D02*
X53847349Y-42951000D01*
X53887349Y-34833000D02*
X53887349Y-42947000D01*
X53927349Y-34838000D02*
X53927349Y-42942000D01*
X53967349Y-34842000D02*
X53967349Y-42938000D01*
X54007349Y-34848000D02*
X54007349Y-42932000D01*
X54047349Y-34853000D02*
X54047349Y-42927000D01*
X54087349Y-34860000D02*
X54087349Y-42920000D01*
X54127349Y-34866000D02*
X54127349Y-42914000D01*
X54168349Y-34873000D02*
X54168349Y-37850000D01*
X54168349Y-39930000D02*
X54168349Y-42907000D01*
X54208349Y-34880000D02*
X54208349Y-37850000D01*
X54208349Y-39930000D02*
X54208349Y-42900000D01*
X54248349Y-34888000D02*
X54248349Y-37850000D01*
X54248349Y-39930000D02*
X54248349Y-42892000D01*
X54288349Y-34896000D02*
X54288349Y-37850000D01*
X54288349Y-39930000D02*
X54288349Y-42884000D01*
X54328349Y-34905000D02*
X54328349Y-37850000D01*
X54328349Y-39930000D02*
X54328349Y-42875000D01*
X54368349Y-34914000D02*
X54368349Y-37850000D01*
X54368349Y-39930000D02*
X54368349Y-42866000D01*
X54408349Y-34923000D02*
X54408349Y-37850000D01*
X54408349Y-39930000D02*
X54408349Y-42857000D01*
X54448349Y-34933000D02*
X54448349Y-37850000D01*
X54448349Y-39930000D02*
X54448349Y-42847000D01*
X54488349Y-34943000D02*
X54488349Y-37850000D01*
X54488349Y-39930000D02*
X54488349Y-42837000D01*
X54528349Y-34954000D02*
X54528349Y-37850000D01*
X54528349Y-39930000D02*
X54528349Y-42826000D01*
X54568349Y-34965000D02*
X54568349Y-37850000D01*
X54568349Y-39930000D02*
X54568349Y-42815000D01*
X54608349Y-34976000D02*
X54608349Y-37850000D01*
X54608349Y-39930000D02*
X54608349Y-42804000D01*
X54648349Y-34988000D02*
X54648349Y-37850000D01*
X54648349Y-39930000D02*
X54648349Y-42792000D01*
X54688349Y-35001000D02*
X54688349Y-37850000D01*
X54688349Y-39930000D02*
X54688349Y-42779000D01*
X54728349Y-35013000D02*
X54728349Y-37850000D01*
X54728349Y-39930000D02*
X54728349Y-42767000D01*
X54768349Y-35027000D02*
X54768349Y-37850000D01*
X54768349Y-39930000D02*
X54768349Y-42753000D01*
X54808349Y-35040000D02*
X54808349Y-37850000D01*
X54808349Y-39930000D02*
X54808349Y-42740000D01*
X54848349Y-35055000D02*
X54848349Y-37850000D01*
X54848349Y-39930000D02*
X54848349Y-42725000D01*
X54888349Y-35069000D02*
X54888349Y-37850000D01*
X54888349Y-39930000D02*
X54888349Y-42711000D01*
X54928349Y-35085000D02*
X54928349Y-37850000D01*
X54928349Y-39930000D02*
X54928349Y-42695000D01*
X54968349Y-35100000D02*
X54968349Y-37850000D01*
X54968349Y-39930000D02*
X54968349Y-42680000D01*
X55008349Y-35116000D02*
X55008349Y-37850000D01*
X55008349Y-39930000D02*
X55008349Y-42664000D01*
X55048349Y-35133000D02*
X55048349Y-37850000D01*
X55048349Y-39930000D02*
X55048349Y-42647000D01*
X55088349Y-35150000D02*
X55088349Y-37850000D01*
X55088349Y-39930000D02*
X55088349Y-42630000D01*
X55128349Y-35168000D02*
X55128349Y-37850000D01*
X55128349Y-39930000D02*
X55128349Y-42612000D01*
X55168349Y-35186000D02*
X55168349Y-37850000D01*
X55168349Y-39930000D02*
X55168349Y-42594000D01*
X55208349Y-35204000D02*
X55208349Y-37850000D01*
X55208349Y-39930000D02*
X55208349Y-42576000D01*
X55248349Y-35224000D02*
X55248349Y-37850000D01*
X55248349Y-39930000D02*
X55248349Y-42556000D01*
X55288349Y-35243000D02*
X55288349Y-37850000D01*
X55288349Y-39930000D02*
X55288349Y-42537000D01*
X55328349Y-35263000D02*
X55328349Y-37850000D01*
X55328349Y-39930000D02*
X55328349Y-42517000D01*
X55368349Y-35284000D02*
X55368349Y-37850000D01*
X55368349Y-39930000D02*
X55368349Y-42496000D01*
X55408349Y-35306000D02*
X55408349Y-37850000D01*
X55408349Y-39930000D02*
X55408349Y-42474000D01*
X55448349Y-35328000D02*
X55448349Y-37850000D01*
X55448349Y-39930000D02*
X55448349Y-42452000D01*
X55488349Y-35350000D02*
X55488349Y-37850000D01*
X55488349Y-39930000D02*
X55488349Y-42430000D01*
X55528349Y-35373000D02*
X55528349Y-37850000D01*
X55528349Y-39930000D02*
X55528349Y-42407000D01*
X55568349Y-35397000D02*
X55568349Y-37850000D01*
X55568349Y-39930000D02*
X55568349Y-42383000D01*
X55608349Y-35421000D02*
X55608349Y-37850000D01*
X55608349Y-39930000D02*
X55608349Y-42359000D01*
X55648349Y-35446000D02*
X55648349Y-37850000D01*
X55648349Y-39930000D02*
X55648349Y-42334000D01*
X55688349Y-35472000D02*
X55688349Y-37850000D01*
X55688349Y-39930000D02*
X55688349Y-42308000D01*
X55728349Y-35498000D02*
X55728349Y-37850000D01*
X55728349Y-39930000D02*
X55728349Y-42282000D01*
X55768349Y-35525000D02*
X55768349Y-37850000D01*
X55768349Y-39930000D02*
X55768349Y-42255000D01*
X55808349Y-35552000D02*
X55808349Y-37850000D01*
X55808349Y-39930000D02*
X55808349Y-42228000D01*
X55848349Y-35581000D02*
X55848349Y-37850000D01*
X55848349Y-39930000D02*
X55848349Y-42199000D01*
X55888349Y-35610000D02*
X55888349Y-37850000D01*
X55888349Y-39930000D02*
X55888349Y-42170000D01*
X55928349Y-35640000D02*
X55928349Y-37850000D01*
X55928349Y-39930000D02*
X55928349Y-42140000D01*
X55968349Y-35670000D02*
X55968349Y-37850000D01*
X55968349Y-39930000D02*
X55968349Y-42110000D01*
X56008349Y-35701000D02*
X56008349Y-37850000D01*
X56008349Y-39930000D02*
X56008349Y-42079000D01*
X56048349Y-35734000D02*
X56048349Y-37850000D01*
X56048349Y-39930000D02*
X56048349Y-42046000D01*
X56088349Y-35766000D02*
X56088349Y-37850000D01*
X56088349Y-39930000D02*
X56088349Y-42014000D01*
X56128349Y-35800000D02*
X56128349Y-37850000D01*
X56128349Y-39930000D02*
X56128349Y-41980000D01*
X56168349Y-35835000D02*
X56168349Y-37850000D01*
X56168349Y-39930000D02*
X56168349Y-41945000D01*
X56208349Y-35871000D02*
X56208349Y-37850000D01*
X56208349Y-39930000D02*
X56208349Y-41909000D01*
X56248349Y-35907000D02*
X56248349Y-41873000D01*
X56288349Y-35945000D02*
X56288349Y-41835000D01*
X56328349Y-35983000D02*
X56328349Y-41797000D01*
X56368349Y-36023000D02*
X56368349Y-41757000D01*
X56408349Y-36064000D02*
X56408349Y-41716000D01*
X56448349Y-36106000D02*
X56448349Y-41674000D01*
X56488349Y-36149000D02*
X56488349Y-41631000D01*
X56528349Y-36193000D02*
X56528349Y-41587000D01*
X56568349Y-36239000D02*
X56568349Y-41541000D01*
X56608349Y-36286000D02*
X56608349Y-41494000D01*
X56648349Y-36334000D02*
X56648349Y-41446000D01*
X56688349Y-36385000D02*
X56688349Y-41395000D01*
X56728349Y-36436000D02*
X56728349Y-41344000D01*
X56768349Y-36490000D02*
X56768349Y-41290000D01*
X56808349Y-36545000D02*
X56808349Y-41235000D01*
X56848349Y-36603000D02*
X56848349Y-41177000D01*
X56888349Y-36662000D02*
X56888349Y-41118000D01*
X56928349Y-36724000D02*
X56928349Y-41056000D01*
X56968349Y-36788000D02*
X56968349Y-40992000D01*
X57008349Y-36856000D02*
X57008349Y-40924000D01*
X57048349Y-36926000D02*
X57048349Y-40854000D01*
X57088349Y-37000000D02*
X57088349Y-40780000D01*
X57128349Y-37077000D02*
X57128349Y-40703000D01*
X57168349Y-37159000D02*
X57168349Y-40621000D01*
X57208349Y-37245000D02*
X57208349Y-40535000D01*
X57248349Y-37338000D02*
X57248349Y-40442000D01*
X57288349Y-37437000D02*
X57288349Y-40343000D01*
X57328349Y-37544000D02*
X57328349Y-40236000D01*
X57368349Y-37661000D02*
X57368349Y-40119000D01*
X57408349Y-37792000D02*
X57408349Y-39988000D01*
X57448349Y-37942000D02*
X57448349Y-39838000D01*
X57488349Y-38122000D02*
X57488349Y-39658000D01*
X57528349Y-38357000D02*
X57528349Y-39423000D01*
X57567349Y-38890000D02*
G75*
G02*
X49327349Y-38890000I-4120000J0D01*
G01*
X49327349Y-38890000D02*
G75*
G02*
X57567349Y-38890000I4120000J0D01*
G01*
%TO.C,Q2*%
X32685000Y-48405000D02*
X32685000Y-56005000D01*
X32685000Y-56005000D02*
X38285000Y-56005000D01*
X37785000Y-48405000D02*
X32685000Y-48405000D01*
X38285000Y-56005000D02*
X38285000Y-48905000D01*
D12*
X38148500Y-48605000D02*
G75*
G02*
X38021500Y-48605000I-63500J0D01*
G01*
X38021500Y-48605000D02*
G75*
G02*
X38148500Y-48605000I63500J0D01*
G01*
D14*
%TO.C,P1*%
X37010000Y-16890000D02*
X47510000Y-16890000D01*
X37010000Y-18330000D02*
X47510000Y-18330000D01*
X37010000Y-24030000D02*
X47510000Y-24030000D01*
X37010000Y-24600000D02*
X47510000Y-24600000D01*
X37020000Y-16890000D02*
X37020000Y-24990000D01*
X37020000Y-25050000D02*
X47520000Y-25050000D01*
X38910000Y-16940000D02*
X38910000Y-17480000D01*
X38910000Y-17480000D02*
X40440000Y-17480000D01*
X40440000Y-17480000D02*
X40440000Y-16940000D01*
X43730000Y-16970000D02*
X43730000Y-17510000D01*
X43730000Y-17510000D02*
X45260000Y-17510000D01*
X45260000Y-17510000D02*
X45260000Y-16970000D01*
X47520000Y-16890000D02*
X47520000Y-24990000D01*
%TD*%
%LPC*%
D16*
%TO.C,U3*%
X52300000Y-22650000D03*
X52300000Y-24350000D03*
X52300000Y-26050000D03*
X52300000Y-27750000D03*
X52300000Y-29450000D03*
D17*
X63400000Y-26050000D03*
%TD*%
D18*
%TO.C,Q3*%
X30625000Y-49515000D03*
X29355000Y-49515000D03*
X28085000Y-49515000D03*
X26815000Y-49515000D03*
X26815000Y-54665000D03*
X28085000Y-54665000D03*
X29355000Y-54665000D03*
X30625000Y-54665000D03*
%TD*%
D19*
%TO.C,R1*%
X34120000Y-19370000D03*
X32470000Y-19370000D03*
%TD*%
D20*
%TO.C,U1*%
X27150000Y-43170000D03*
X29150000Y-43170000D03*
X31150000Y-43170000D03*
X33150000Y-43170000D03*
X35150000Y-43170000D03*
X37150000Y-43170000D03*
X39150000Y-43170000D03*
X41150000Y-43170000D03*
D21*
X42390000Y-40420000D03*
X42390000Y-38420000D03*
X42390000Y-36420000D03*
X42390000Y-34420000D03*
X42390000Y-32420000D03*
X42390000Y-30420000D03*
D20*
X41150000Y-27670000D03*
X39150000Y-27670000D03*
X37150000Y-27670000D03*
X35150000Y-27670000D03*
X33150000Y-27670000D03*
X31150000Y-27670000D03*
X29150000Y-27670000D03*
X27150000Y-27670000D03*
%TD*%
D22*
%TO.C,L1*%
X60770000Y-51390000D03*
X51170000Y-51390000D03*
%TD*%
D23*
%TO.C,C2*%
X61820000Y-39080000D03*
D24*
X65320000Y-39080000D03*
%TD*%
D18*
%TO.C,Q1*%
X44525000Y-49775000D03*
X43255000Y-49775000D03*
X41985000Y-49775000D03*
X40715000Y-49775000D03*
X40715000Y-54925000D03*
X41985000Y-54925000D03*
X43255000Y-54925000D03*
X44525000Y-54925000D03*
%TD*%
D25*
%TO.C,U2*%
X46480000Y-64640000D03*
X44480000Y-64640000D03*
X42480000Y-64640000D03*
X40480000Y-64640000D03*
%TD*%
D21*
%TO.C,JP1*%
X33770000Y-23950000D03*
X33770000Y-22650000D03*
%TD*%
D23*
%TO.C,C1*%
X51697349Y-38890000D03*
D24*
X55197349Y-38890000D03*
%TD*%
D18*
%TO.C,Q2*%
X37390000Y-49630000D03*
X36120000Y-49630000D03*
X34850000Y-49630000D03*
X33580000Y-49630000D03*
X33580000Y-54780000D03*
X34850000Y-54780000D03*
X36120000Y-54780000D03*
X37390000Y-54780000D03*
%TD*%
D26*
%TO.C,P1*%
X39750000Y-20890000D03*
X44750000Y-20890000D03*
%TD*%
%LPD*%
M02*
