M48
; DRILL file {KiCad 8.0.5} date 2025-06-15T17:11:27+0200
; FORMAT={-:-/ absolute / inch / decimal}
; #@! TF.CreationDate,2025-06-15T17:11:27+02:00
; #@! TF.GenerationSoftware,Kicad,Pcbnew,8.0.5
; #@! TF.FileFunction,Plated,1,2,PTH
FMAT,2
INCH
; #@! TA.AperFunction,Plated,PTH,ViaDrill
T1C0.0118
; #@! TA.AperFunction,Plated,PTH,ComponentDrill
T2C0.0315
; #@! TA.AperFunction,Plated,PTH,ComponentDrill
T3C0.0472
%
G90
G05
T1
X1.0823Y-1.5874
X1.085Y-1.8472
X1.1689Y-0.9654
X1.3055Y-1.7512
X1.3244Y-1.8594
X1.3843Y-1.7453
X1.4331Y-1.2937
X1.4626Y-1.7406
X1.5413Y-1.8634
X1.6157Y-0.9535
X1.913Y-1.0957
X1.913Y-1.0957
X1.9189Y-0.9843
X2.015Y-1.8047
X2.0602Y-0.798
X2.3917Y-1.8386
T2
X2.0353Y-1.5311
X2.1731Y-1.5311
X2.4339Y-1.5386
X2.5717Y-1.5386
T3
X1.565Y-0.8224
X1.7618Y-0.8224
M30
